<?xml version="1.0" encoding="UTF-8" standalone="no"?>
<svg
   xmlns:dc="http://purl.org/dc/elements/1.1/"
   xmlns:cc="http://creativecommons.org/ns#"
   xmlns:rdf="http://www.w3.org/1999/02/22-rdf-syntax-ns#"
   xmlns:svg="http://www.w3.org/2000/svg"
   xmlns="http://www.w3.org/2000/svg"
   viewBox="0 0 1500 1500"
   height="1500"
   width="1500"
   xml:space="preserve"
   id="svg2"
   version="1.1"><metadata
     id="metadata8"><rdf:RDF><cc:Work
         rdf:about=""><dc:format>image/svg+xml</dc:format><dc:type
           rdf:resource="http://purl.org/dc/dcmitype/StillImage" /></cc:Work></rdf:RDF></metadata><defs
     id="defs6" /><g
     transform="matrix(1.3333333,0,0,-1.3333333,0,793.70667)"
     id="g10"><g
       transform="scale(0.1)"
       id="g12"><path
         id="path14"
         style="fill:#918aa1;fill-opacity:1;fill-rule:nonzero;stroke:none"
         d="M 5543.02,2028.64 4333.67,3229.1 v 1057.47 c 0,68.81 -55.77,124.57 -124.57,124.57 -68.79,0 -124.56,-55.76 -124.56,-124.57 V 3215.05 L 2874.84,1985.82 c -48.25,-49.02 -47.62,-127.93 1.4,-176.19 24.27,-23.84 55.84,-35.76 87.38,-35.76 32.2,0 64.41,12.41 88.78,37.19 L 4216.74,2994.18 5367.53,1851.85 c 24.28,-24.13 56.02,-36.17 87.75,-36.17 32.03,0 64.06,12.28 88.39,36.82 48.48,48.82 48.19,127.68 -0.65,176.14" /><path
         id="path16"
         style="fill:#c2bcc8;fill-opacity:1;fill-rule:nonzero;stroke:none"
         d="m 4361.72,2850.26 -74.06,73.51 v 0.01 l 74.06,-73.52 m 130.87,221.08 -29.44,29.23 0.04,0.05 29.4,-29.28" /><path
         id="path18"
         style="fill:#6a647d;fill-opacity:1;fill-rule:nonzero;stroke:none"
         d="m 4517.08,2696.07 -155.36,154.19 -74.06,73.52 175.49,176.79 29.44,-29.23 202.25,-201.38 -177.76,-173.89" /><path
         id="path20"
         style="fill:#c2bcc8;fill-opacity:1;fill-rule:nonzero;stroke:none"
         d="m 3922.96,2695.66 v 0 l 219.53,223.07 0.86,-0.87 -220.39,-222.2" /><path
         id="path22"
         style="fill:#6a647d;fill-opacity:1;fill-rule:nonzero;stroke:none"
         d="m 3922.96,2695.66 -177.76,173.9 222.61,225.15 174.68,-175.98 -219.53,-223.07" /><path
         id="path24"
         style="fill:#473e5f;fill-opacity:1;fill-rule:nonzero;stroke:none"
         d="m 4209.11,2891.73 c -32.28,0 -64.56,12.48 -88.95,37.34 L 2874.68,4199.35 c -48.17,49.14 -47.38,128.01 1.75,176.18 49.1,48.14 127.99,47.32 176.14,-1.74 L 4298.05,3103.51 c 48.17,-49.14 47.38,-128.01 -1.74,-176.18 -24.23,-23.77 -55.74,-35.6 -87.2,-35.6" /><path
         id="path26"
         style="fill:#473e5f;fill-opacity:1;fill-rule:nonzero;stroke:none"
         d="m 4209.11,1541.66 c -68.79,0 -124.57,55.76 -124.57,124.57 V 3016.3 c 0,68.79 55.78,124.56 124.57,124.56 68.79,0 124.56,-55.77 124.56,-124.56 V 1666.23 c 0,-68.81 -55.77,-124.57 -124.56,-124.57" /><path
         id="path28"
         style="fill:#473e5f;fill-opacity:1;fill-rule:nonzero;stroke:none"
         d="m 4209.11,2891.73 c -31.49,0 -62.97,11.83 -87.2,35.6 -49.13,48.17 -49.92,127.04 -1.75,176.18 l 1245.48,1270.28 c 48.18,49.11 127.08,49.88 176.15,1.74 49.13,-48.17 49.92,-127.04 1.74,-176.18 L 4298.05,2929.07 c -24.39,-24.86 -56.67,-37.34 -88.94,-37.34" /><path
         id="path30"
         style="fill:#ffffff;fill-opacity:1;fill-rule:nonzero;stroke:none"
         d="m 4130.55,3046.63 c 0,43.38 35.16,78.55 78.55,78.55 43.38,0 78.56,-35.17 78.56,-78.55 0,-43.39 -35.18,-78.56 -78.56,-78.56 -43.39,0 -78.55,35.17 -78.55,78.56" /></g></g></svg>